<?xml version="1.0" standalone="no"?>
<!DOCTYPE svg PUBLIC "-//W3C//DTD SVG 20010904//EN"
 "http://www.w3.org/TR/2001/REC-SVG-20010904/DTD/svg10.dtd">
<svg version="1.0" xmlns="http://www.w3.org/2000/svg"
 width="300.000000pt" height="289.000000pt" viewBox="0 0 300.000000 289.000000"
 preserveAspectRatio="xMidYMid meet">
<metadata>
Created by potrace 1.10, written by Peter Selinger 2001-2011
</metadata>
<g transform="translate(0.000000,289.000000) scale(0.100000,-0.100000)"
fill="#ffffff" stroke="none">
<path d="M810 2881 c0 -6 5 -11 10 -11 6 0 13 0 18 0 4 -1 23 -16 43 -36 35
-34 53 -37 42 -6 -5 13 -3 14 6 6 7 -6 13 -19 15 -28 2 -15 96 -112 96 -100 0
3 13 -4 29 -15 16 -12 33 -21 38 -21 6 0 18 -9 28 -20 10 -11 21 -17 25 -15 4
3 10 -2 13 -10 4 -8 16 -13 29 -12 13 1 25 -2 27 -8 2 -5 13 -17 25 -24 11 -8
27 -23 34 -33 7 -10 18 -15 24 -12 6 4 9 3 5 -2 -3 -5 2 -18 10 -29 15 -20 15
-20 10 2 -6 29 8 39 22 16 5 -10 13 -18 18 -18 4 0 8 -5 7 -11 -1 -11 31 -12
42 -1 10 9 26 9 21 0 -7 -11 51 -78 59 -70 4 3 -1 13 -10 22 -18 19 -22 40 -4
29 8 -5 9 -1 5 12 -6 17 -6 17 5 3 7 -9 23 -21 36 -28 18 -10 22 -9 22 3 0 18
-34 38 -70 43 -14 1 -36 5 -50 7 -14 2 -31 5 -38 5 -7 1 -11 5 -7 10 3 5 0 13
-6 17 -8 5 -9 3 -4 -6 6 -10 4 -12 -11 -6 -10 4 -23 8 -29 9 -11 2 -78 59
-125 108 -19 20 -46 42 -60 48 -16 8 -8 -3 20 -28 56 -49 49 -62 -9 -16 -24
19 -47 32 -52 29 -13 -8 -11 10 3 24 9 9 6 11 -10 7 -24 -4 -76 18 -65 28 3 4
1 7 -6 7 -12 0 -41 24 -41 34 0 3 8 2 18 -1 15 -6 15 -5 2 8 -8 8 -24 21 -35
29 -20 15 -20 14 -1 -8 11 -12 15 -22 10 -22 -13 0 -39 18 -39 27 -1 21 -28
54 -40 49 -7 -2 -19 1 -25 9 -12 15 -50 16 -50 2 0 -5 -7 -4 -15 3 -10 9 -15
9 -15 1z"/>
<path d="M2415 2883 c-11 -3 -35 -17 -53 -31 -19 -15 -46 -28 -60 -30 -16 -2
-55 -34 -107 -88 -46 -47 -85 -82 -87 -77 -3 4 -3 3 -2 -4 4 -17 -40 -43 -65
-38 -18 3 -21 -1 -20 -33 0 -30 2 -33 9 -17 5 11 9 16 10 10 0 -5 8 -1 17 10
13 16 14 17 9 3 -17 -48 -17 -51 3 -19 12 18 25 31 27 28 3 -3 18 5 32 18 15
13 37 32 49 43 13 10 20 21 17 25 -3 3 3 4 13 4 9 -1 18 5 18 13 0 21 61 106
80 114 10 3 4 -9 -14 -31 -27 -33 -34 -62 -10 -47 5 3 7 9 4 14 -6 9 12 23 33
26 6 1 9 -2 6 -8 -4 -6 -1 -9 7 -6 8 3 14 11 14 19 0 7 12 16 27 19 15 3 43
23 63 48 37 43 34 48 -20 35z"/>
<path d="M2606 2805 c4 -49 13 -103 21 -120 l14 -30 -7 40 c-4 22 -8 71 -9
108 -1 38 -7 73 -14 80 -10 9 -11 -7 -5 -78z"/>
<path d="M814 2825 c2 -22 9 -63 16 -92 6 -29 18 -90 25 -135 8 -46 18 -103
24 -128 21 -92 27 -105 47 -103 10 1 13 0 7 -3 -17 -7 -16 -14 2 -58 8 -20 16
-39 16 -43 3 -27 22 -31 62 -12 23 10 53 19 67 19 22 1 23 2 6 9 -11 4 -40 3
-64 -3 -35 -8 -47 -7 -50 2 -2 7 -9 9 -15 6 -8 -5 -8 -2 1 7 19 21 15 51 -19
125 -17 38 -35 91 -39 119 -5 27 -14 70 -20 95 -20 74 -38 175 -33 180 7 7
134 -129 129 -139 -3 -4 4 -20 15 -37 10 -16 19 -25 19 -21 0 4 -8 20 -17 34
l-18 26 27 -17 c15 -10 34 -28 43 -42 8 -13 23 -24 31 -24 12 0 11 4 -6 18
-13 10 -21 24 -18 32 3 10 7 10 19 -2 8 -8 26 -20 39 -27 15 -7 6 4 -20 26
-24 21 -82 73 -129 116 -47 42 -94 77 -104 77 -11 0 -26 8 -33 18 -12 15 -13
12 -10 -23z"/>
<path d="M2470 2835 c-7 -8 -16 -13 -20 -10 -4 2 -17 -9 -29 -25 l-21 -30 36
25 c20 14 40 25 44 25 4 0 10 7 14 15 7 19 -8 19 -24 0z"/>
<path d="M2640 2793 c0 -21 5 -45 10 -53 7 -11 10 0 10 38 0 28 -4 52 -10 52
-5 0 -10 -17 -10 -37z"/>
<path d="M2485 2799 c-11 -6 -33 -28 -48 -50 -26 -36 -57 -56 -42 -26 4 6 -18
-14 -48 -47 -31 -32 -60 -55 -66 -52 -6 4 -9 1 -6 -7 7 -18 -63 -109 -77 -101
-7 5 -5 12 7 20 10 8 16 16 13 19 -2 3 -13 -4 -23 -15 -10 -11 -14 -20 -10
-20 4 0 0 -10 -11 -22 -15 -19 -16 -20 -1 -9 17 13 24 3 9 -14 -4 -6 8 5 28
22 19 18 49 44 65 58 21 18 24 23 10 19 -16 -6 -14 0 11 27 17 19 41 47 53 64
12 16 28 30 34 30 20 0 97 45 97 56 0 6 -6 7 -12 3 -8 -4 -10 -3 -5 2 5 5 13
9 19 9 6 0 17 10 26 23 15 24 9 27 -23 11z"/>
<path d="M2569 2766 c-3 -25 -1 -46 2 -46 12 0 21 72 11 82 -6 6 -11 -7 -13
-36z"/>
<path d="M2333 2728 c-21 -29 -44 -60 -50 -70 -11 -13 -10 -16 2 -14 16 2 56
49 59 70 1 7 10 25 19 39 30 46 11 29 -30 -25z"/>
<path d="M2472 2698 c-24 -11 -42 -22 -39 -25 3 -2 15 0 26 7 12 6 21 7 21 3
0 -16 -48 -31 -61 -19 -9 8 -10 8 -5 -1 4 -8 -2 -15 -18 -19 -13 -3 -35 -17
-47 -30 -21 -22 -21 -24 -4 -16 79 34 137 66 142 79 3 8 20 21 37 29 22 9 25
13 11 13 -11 0 -40 -10 -63 -21z"/>
<path d="M1927 2694 c-12 -12 -8 -51 9 -80 l16 -29 -4 26 c-3 16 0 26 8 26 7
0 12 -5 11 -10 -1 -5 4 -12 11 -14 17 -6 14 16 -7 51 -18 31 -33 41 -44 30z"/>
<path d="M2594 2674 c15 -58 17 -70 22 -119 5 -52 -12 -135 -27 -135 -5 0 -9
-8 -10 -17 0 -12 -2 -14 -6 -5 -4 10 -8 8 -17 -6 -6 -11 -22 -35 -35 -54 -20
-26 -21 -29 -5 -15 11 9 24 17 29 17 4 0 1 -8 -7 -17 -8 -10 -18 -27 -22 -38
-5 -14 1 -11 18 10 14 17 23 36 21 42 -2 7 4 17 13 22 10 5 31 33 46 62 34 61
37 124 11 212 -17 59 -44 96 -31 41z"/>
<path d="M2660 2675 c0 -16 5 -69 11 -117 9 -78 9 -89 -8 -114 -10 -16 -12
-25 -5 -21 15 10 16 -15 1 -30 -6 -6 -9 -17 -7 -25 3 -8 12 1 22 21 16 30 17
50 11 161 -4 70 -11 133 -16 141 -6 10 -9 5 -9 -16z"/>
<path d="M1695 2679 c-8 -12 40 -89 56 -89 5 0 -4 21 -21 48 l-31 47 30 -35
c28 -30 31 -32 31 -13 0 38 -49 70 -65 42z"/>
<path d="M1870 2634 c-13 -33 -13 -81 -1 -68 5 5 11 23 14 39 3 24 4 22 6 -12
1 -30 -5 -48 -18 -60 -10 -10 -24 -29 -31 -43 -9 -18 0 -13 34 20 25 24 46 40
46 34 0 -6 -11 -21 -25 -34 -13 -12 -22 -26 -20 -31 3 -4 0 -9 -7 -11 -8 -3
-6 -7 4 -11 13 -4 16 -1 13 14 -2 12 2 19 11 19 8 0 15 6 15 13 1 6 4 -4 8
-23 3 -19 3 -39 -1 -45 -4 -5 -19 -24 -33 -42 -18 -22 -22 -34 -14 -39 8 -4 9
-3 5 4 -4 7 -1 12 9 12 9 0 13 5 10 10 -3 6 -2 10 2 10 15 0 41 54 36 75 -2
11 -4 37 -5 58 0 23 -6 37 -14 37 -7 0 -12 10 -12 23 4 74 -13 102 -32 51z"/>
<path d="M920 2613 c1 -11 30 -49 30 -38 0 4 10 0 23 -11 12 -10 6 -2 -12 19
-36 38 -41 42 -41 30z"/>
<path d="M1995 2610 c-3 -5 -3 -14 0 -20 3 -5 -5 -15 -19 -22 -17 -7 -26 -19
-26 -34 0 -12 -2 -31 -5 -41 -3 -10 0 -7 7 7 14 29 29 41 40 34 4 -3 8 -2 8 3
1 4 3 25 6 46 6 36 1 47 -11 27z"/>
<path d="M2410 2605 c-7 -9 -15 -13 -18 -11 -8 8 -55 -20 -95 -58 -21 -19 -41
-34 -44 -33 -3 1 -12 -8 -20 -20 -9 -13 -12 -23 -7 -23 12 0 101 63 100 71 -1
11 36 49 48 49 6 0 0 -9 -14 -20 -14 -11 -20 -20 -15 -20 6 0 29 18 50 40 21
22 36 40 33 40 -3 0 -11 -7 -18 -15z"/>
<path d="M1014 2598 c-4 -7 -4 -10 -1 -7 10 8 100 -78 93 -89 -3 -6 6 -18 20
-27 22 -14 28 -15 35 -4 10 17 -10 42 -28 35 -8 -3 -12 -2 -8 3 3 5 -1 11 -7
14 -7 2 -10 8 -6 12 4 4 23 -6 44 -21 22 -17 31 -30 24 -32 -9 -3 -5 -11 11
-23 13 -10 19 -19 12 -19 -6 0 -15 5 -18 10 -3 6 -10 10 -16 10 -18 0 -8 -15
22 -32 17 -10 28 -22 25 -27 -3 -5 2 -15 12 -22 15 -12 16 -12 5 2 -10 12 -9
18 7 29 18 13 17 15 -17 38 -21 15 -31 27 -24 31 12 8 -77 81 -98 81 -7 0 -9
5 -5 12 4 7 3 8 -5 4 -6 -4 -24 2 -40 14 -23 15 -31 17 -37 8z"/>
<path d="M1771 2604 c-1 -6 6 -17 14 -24 12 -10 18 -10 30 0 20 17 9 33 -15
20 -13 -7 -20 -6 -23 3 -4 7 -6 8 -6 1z"/>
<path d="M2419 2580 l-24 -19 23 -1 c12 0 22 4 22 10 0 5 7 6 17 3 12 -5 14
-3 8 7 -6 10 -4 12 9 7 10 -4 15 -3 11 3 -10 16 -41 12 -66 -10z"/>
<path d="M1490 2572 c0 -7 5 -10 10 -7 6 3 15 -6 20 -20 6 -16 14 -23 22 -19
7 5 9 2 5 -9 -4 -11 -2 -14 9 -10 21 8 -22 82 -47 80 -11 -1 -19 -7 -19 -15z"/>
<path d="M1609 2563 c-8 -9 -9 -14 -3 -10 14 8 27 -20 18 -36 -5 -8 -4 -9 3
-2 5 6 14 22 21 38 10 24 9 27 -7 27 -10 0 -25 -8 -32 -17z"/>
<path d="M1801 2524 c-18 -30 -31 -57 -29 -59 8 -8 68 78 68 97 0 10 -1 18 -2
18 -2 0 -18 -25 -37 -56z"/>
<path d="M1574 2545 c4 -16 6 -48 6 -70 -1 -22 2 -37 5 -33 11 11 7 110 -5
122 -10 8 -11 4 -6 -19z"/>
<path d="M1730 2530 c-27 -25 -31 -27 -27 -10 4 16 2 18 -13 10 -18 -10 -36
-58 -25 -69 4 -3 12 2 19 12 7 9 16 17 20 17 4 0 18 12 32 28 l25 27 -15 -31
c-8 -17 -13 -34 -9 -37 7 -8 63 61 63 77 -1 6 -7 0 -14 -13 -11 -20 -14 -21
-19 -7 -4 10 -3 15 3 11 6 -3 10 -1 10 4 0 19 -17 12 -50 -19z"/>
<path d="M2400 2543 c-16 -6 -130 -74 -130 -78 0 -4 100 24 110 30 6 3 10 14
10 23 0 13 2 14 9 4 6 -10 10 -9 14 7 3 12 4 21 4 20 -1 0 -9 -3 -17 -6z"/>
<path d="M1640 2490 c-7 -16 -16 -30 -21 -30 -5 0 -9 -7 -9 -15 0 -27 15 -15
32 27 10 23 16 43 14 45 -2 2 -9 -10 -16 -27z"/>
<path d="M1970 2500 c0 -11 -9 -42 -19 -70 -11 -27 -15 -50 -11 -50 5 0 11 -8
14 -17 3 -10 4 -6 2 9 -2 15 1 29 7 31 5 1 11 23 14 47 2 25 6 51 8 58 2 6 0
12 -5 12 -6 0 -10 -9 -10 -20z"/>
<path d="M2087 2492 c-28 -29 -37 -53 -13 -33 11 10 15 8 19 -6 4 -16 5 -15 6
2 0 11 8 31 17 43 22 31 3 27 -29 -6z"/>
<path d="M965 2500 c3 -5 15 -15 27 -21 16 -8 19 -8 13 1 -5 9 -1 10 16 6 24
-7 24 -7 -1 8 -28 17 -64 21 -55 6z"/>
<path d="M2368 2474 c-60 -30 -63 -40 -5 -15 23 10 48 17 55 15 7 -1 8 0 2 3
-5 2 -8 9 -4 14 6 11 9 12 -48 -17z"/>
<path d="M1366 2434 c4 -27 10 -52 14 -57 3 -4 4 15 0 43 -3 27 -9 53 -13 57
-4 3 -4 -16 -1 -43z"/>
<path d="M1055 2448 c11 -6 30 -20 43 -31 12 -12 22 -15 22 -9 0 13 -58 52
-75 52 -5 0 -1 -6 10 -12z"/>
<path d="M1433 2441 c0 -11 5 -17 11 -14 5 4 7 -1 3 -10 -4 -12 -1 -17 11 -17
13 0 14 -2 4 -9 -10 -6 -10 -10 3 -21 14 -12 15 -10 11 12 -4 23 -33 78 -42
78 -1 0 -2 -9 -1 -19z"/>
<path d="M2387 2449 c-20 -5 -56 -19 -80 -31 -23 -12 -45 -21 -48 -20 -4 0
-17 -10 -29 -23 -21 -22 -21 -24 -4 -20 10 2 37 13 59 24 21 12 44 21 50 21 6
0 18 9 28 20 15 17 40 24 85 23 6 -1 12 3 12 8 0 11 -22 10 -73 -2z"/>
<path d="M2198 2412 c-41 -37 -46 -49 -23 -49 8 0 12 4 9 8 -2 4 0 10 6 14 5
3 10 1 10 -5 0 -6 5 -8 11 -4 8 5 8 8 0 13 -7 5 -3 15 14 31 23 21 35 17 18
-6 -5 -5 0 -1 9 9 9 10 19 17 22 15 2 -2 7 -1 10 3 3 3 -7 5 -22 5 -16 0 -41
-13 -64 -34z"/>
<path d="M1852 2415 c-7 -8 -12 -17 -12 -20 0 -17 -1 -19 -9 -7 -7 11 -9 11
-14 0 -9 -26 23 -16 44 14 21 29 14 39 -9 13z"/>
<path d="M1076 2406 c10 -8 16 -18 12 -22 -5 -4 -17 1 -28 11 -11 10 -20 15
-20 12 0 -9 42 -47 52 -47 5 0 6 5 2 11 -5 8 -1 8 14 0 12 -6 24 -16 28 -22 4
-8 1 -8 -12 -1 -14 7 -23 6 -32 -4 -13 -14 -2 -19 54 -27 20 -3 64 -37 47 -37
-4 0 -26 7 -48 15 -47 16 -111 19 -120 5 -3 -6 1 -7 9 -4 30 12 151 -25 206
-63 25 -17 25 -17 8 3 -10 11 -18 27 -18 36 0 8 -8 24 -18 36 -21 23 -138 112
-149 112 -4 0 2 -6 13 -14z"/>
<path d="M1251 2400 c-8 -4 -11 -12 -7 -18 3 -6 2 -13 -4 -17 -13 -8 -3 -25
14 -25 8 0 11 11 9 33 -3 24 -2 29 6 17 7 -9 11 -10 11 -3 0 17 -14 23 -29 13z"/>
<path d="M2387 2398 c-15 -5 -25 -14 -22 -19 4 -5 0 -6 -8 -4 -7 3 -27 -2 -43
-11 -27 -14 -27 -15 -4 -10 14 3 43 6 65 7 22 0 34 3 27 6 -10 4 -9 9 4 24 19
21 19 21 -19 7z"/>
<path d="M2580 2341 c-6 -12 -8 -26 -5 -31 7 -11 -8 -42 -18 -41 -8 1 -8 -3
-2 -24 16 -51 16 -51 40 -5 13 25 24 50 24 55 0 6 -9 -7 -20 -28 -11 -22 -23
-37 -25 -34 -3 3 2 20 12 38 11 23 13 34 5 37 -8 3 -8 9 0 24 6 11 8 22 6 25
-3 2 -10 -5 -17 -16z"/>
<path d="M1324 2318 c-4 -13 -2 -24 5 -26 6 -2 11 -11 12 -20 0 -10 3 -12 5
-5 3 7 1 21 -5 32 -8 14 -8 20 1 23 9 3 9 6 1 11 -7 4 -14 -2 -19 -15z"/>
<path d="M2280 2330 c-15 -5 1 -6 40 -3 36 3 67 7 69 9 8 7 -84 2 -109 -6z"/>
<path d="M2280 2290 c0 -5 -4 -9 -9 -7 -15 4 -68 -41 -74 -63 -4 -17 -3 -19 9
-9 8 6 14 17 14 23 0 12 37 39 59 42 23 4 38 24 18 24 -9 0 -17 -4 -17 -10z"/>
<path d="M2667 2293 c-9 -15 -11 -58 -4 -70 9 -14 -16 -69 -35 -76 -10 -4 -10
-6 1 -6 11 -1 10 -6 -3 -26 -12 -18 -13 -25 -4 -25 7 0 -1 -9 -18 -19 -39 -24
-57 -48 -23 -30 13 7 31 15 39 19 8 4 16 13 16 21 1 8 3 19 4 24 1 6 2 13 1
17 0 4 8 10 19 13 23 7 26 21 8 28 -10 3 -8 9 5 24 18 20 24 48 8 39 -5 -4 -7
11 -4 34 5 37 1 51 -10 33z"/>
<path d="M1085 2240 c-38 -7 -37 -7 20 -10 33 -1 64 -2 69 -1 13 3 46 -31 40
-40 -3 -5 3 -9 13 -9 14 0 12 6 -12 29 -33 32 -70 41 -130 31z"/>
<path d="M2302 2183 c-26 -25 -38 -39 -26 -30 11 10 24 14 27 10 4 -3 7 1 7
10 0 8 9 18 19 22 24 7 49 35 32 35 -7 0 -33 -21 -59 -47z"/>
<path d="M1038 2213 c-34 -4 -37 -7 -34 -31 4 -39 22 -68 56 -92 41 -29 38
-10 -5 36 -19 20 -34 46 -34 58 1 17 2 18 6 4 5 -20 23 -25 23 -7 0 7 10 9 25
5 15 -4 25 -2 25 4 0 7 6 8 19 0 11 -5 34 -10 53 -10 l32 0 -23 16 c-25 18
-82 24 -143 17z"/>
<path d="M2450 2158 c0 -14 34 -48 48 -48 5 0 6 15 4 32 -4 26 -6 29 -12 14
-6 -17 -7 -17 -23 -2 -13 13 -17 14 -17 4z"/>
<path d="M2572 2154 c-9 -7 -14 -16 -10 -20 4 -4 3 -13 -3 -21 -9 -10 -8 -13
0 -13 7 0 18 14 25 30 7 17 15 28 18 25 3 -4 8 -2 12 3 8 13 -22 11 -42 -4z"/>
<path d="M1656 2126 c-4 -18 -2 -44 3 -57 7 -16 10 -18 10 -7 1 9 4 24 8 34 4
12 3 15 -5 10 -8 -5 -10 2 -6 24 4 16 4 30 1 30 -2 0 -8 -15 -11 -34z"/>
<path d="M1115 2120 c-3 -5 -2 -10 3 -10 5 0 14 -11 20 -25 10 -21 16 -24 39
-19 16 4 24 3 20 -2 -5 -5 -13 -9 -18 -9 -5 0 -10 -4 -10 -8 -2 -13 55 -126
64 -126 4 -1 1 12 -8 29 -24 46 -18 47 25 5 22 -21 40 -35 40 -30 0 6 7 2 15
-9 8 -10 19 -15 26 -10 7 4 10 3 5 -4 -5 -9 17 -22 44 -27 16 -3 56 -31 77
-54 19 -21 22 -22 14 -5 -18 38 -81 85 -104 80 -12 -3 -16 -3 -9 0 21 10 13
21 -38 53 -34 21 -47 25 -43 14 12 -31 -22 -7 -55 40 -34 47 -34 47 -12 55 20
7 18 9 -19 21 -23 6 -41 17 -41 22 0 6 7 8 16 5 9 -4 23 -1 30 5 7 6 19 7 25
3 9 -5 7 -10 -7 -15 -17 -7 -17 -8 -1 -8 9 -1 36 -13 60 -27 l42 -26 -45 46
c-45 47 -67 55 -88 34 -9 -9 -12 -9 -12 0 0 14 -46 16 -55 2z"/>
<path d="M1530 2110 c0 -3 13 -16 28 -27 l29 -21 -2 21 c-2 12 -8 21 -14 20
-6 -2 -11 1 -11 5 0 5 -7 9 -15 9 -8 0 -15 -3 -15 -7z"/>
<path d="M1100 2093 c1 -11 60 -88 60 -79 0 14 -43 86 -52 86 -4 0 -8 -3 -8
-7z"/>
<path d="M1027 2084 c-7 -8 28 -80 43 -89 6 -4 18 -1 27 7 14 11 15 10 9 -10
-8 -23 13 -40 33 -28 9 6 -25 51 -39 51 -15 1 -31 19 -26 31 3 9 0 11 -11 7
-10 -4 -14 -2 -10 4 8 12 -16 36 -26 27z"/>
<path d="M1602 2083 c24 -49 32 -63 40 -63 13 0 9 24 -8 48 -14 20 -41 32 -32
15z"/>
<path d="M1686 2056 c-18 -24 -22 -35 -13 -39 7 -3 22 12 34 34 26 48 14 51
-21 5z"/>
<path d="M1724 2049 c-25 -41 -25 -41 -6 -59 19 -18 32 -17 32 2 0 5 -4 6 -10
3 -17 -11 -11 7 8 21 16 13 16 14 0 8 -22 -8 -22 -1 -3 36 23 44 9 36 -21 -11z"/>
<path d="M2480 2071 c-17 -5 -21 -9 -13 -14 7 -5 22 -3 34 4 20 10 21 9 16
-11 l-6 -22 25 23 c13 12 24 24 24 26 0 5 -53 1 -80 -6z"/>
<path d="M1341 2033 c22 -23 27 -34 16 -30 -28 10 -11 -9 39 -43 24 -17 44
-36 44 -42 0 -7 -7 -3 -15 8 -8 10 -15 15 -15 11 0 -12 -80 47 -119 87 -19 20
-38 36 -43 36 -14 0 97 -101 139 -126 19 -12 46 -33 61 -46 40 -37 82 -62 82
-49 0 6 -11 16 -24 21 -25 9 -42 42 -31 60 3 5 -1 10 -9 10 -9 0 -16 5 -16 10
0 6 -6 10 -12 10 -7 0 -26 12 -43 26 -22 19 -25 24 -10 20 17 -5 18 -4 5 6 -9
7 -23 24 -33 37 -9 14 -24 26 -33 27 -11 2 -5 -9 17 -33z"/>
<path d="M1781 2009 c-22 -27 -30 -46 -26 -57 6 -14 9 -13 18 8 6 14 19 40 30
58 25 43 17 40 -22 -9z"/>
<path d="M2589 2022 c-23 -20 -21 -52 3 -52 10 0 9 3 -1 9 -11 7 -9 14 12 35
30 30 20 35 -14 8z"/>
<path d="M1546 2016 c30 -23 7 -32 -28 -11 l-31 18 19 -25 c10 -14 21 -25 24
-23 3 2 6 -10 7 -26 l2 -29 -32 16 -32 15 25 -20 c14 -11 25 -26 25 -33 0 -8
6 -20 13 -28 47 -57 65 -85 87 -132 14 -29 22 -42 19 -29 -4 14 -8 43 -9 67
-2 35 -10 48 -49 84 -25 23 -46 47 -46 52 0 5 13 22 29 38 l28 29 -26 25 c-15
14 -31 26 -36 26 -5 0 0 -6 11 -14z"/>
<path d="M1908 1997 c-14 -13 -32 -34 -41 -48 -14 -23 -50 -149 -60 -214 -3
-16 -8 -43 -11 -60 -4 -19 2 -11 15 20 12 28 21 65 20 84 0 25 9 45 38 80 46
56 64 89 23 43 -20 -22 -31 -29 -34 -20 -7 17 5 50 17 47 6 -1 22 19 37 45 15
25 26 46 24 46 -2 0 -14 -10 -28 -23z"/>
<path d="M1015 1996 c-21 -15 -5 -32 21 -22 8 3 13 2 10 -3 -8 -13 76 -99 104
-106 17 -4 21 -3 11 3 -11 8 -11 10 0 15 15 6 -14 11 -40 7 -12 -1 -13 1 -2
14 11 13 6 18 -30 36 -26 14 -38 25 -30 29 8 5 6 12 -7 24 -16 14 -21 15 -37
3z"/>
<path d="M1660 1998 c0 -10 7 -23 15 -30 53 -44 69 -70 37 -61 -24 6 -52 -27
-42 -51 6 -18 11 -16 50 21 39 36 43 43 31 57 -8 9 -16 14 -19 12 -2 -3 -20
11 -38 32 -24 26 -34 32 -34 20z"/>
<path d="M1590 1945 l-35 -35 35 -29 c26 -22 36 -25 38 -15 4 18 -17 46 -29
38 -20 -12 -7 18 16 38 24 21 33 39 18 37 -5 0 -24 -15 -43 -34z"/>
<path d="M1800 1951 c0 -7 -4 -10 -9 -7 -5 3 -11 -4 -15 -17 -3 -12 -14 -32
-25 -44 -18 -19 -19 -28 -12 -85 l8 -63 2 52 c1 52 22 111 50 146 8 9 11 20 8
24 -4 3 -7 1 -7 -6z"/>
<path d="M2816 1923 c-25 -9 -95 -14 -192 -16 -175 -2 -171 -23 4 -26 54 -1
26 -19 -41 -27 -51 -6 -57 -9 -35 -15 31 -8 84 2 143 27 22 9 52 18 68 20 15
2 41 10 57 19 40 21 47 19 20 -5 -13 -11 -17 -20 -10 -20 19 0 -34 -39 -70
-52 -19 -6 -28 -14 -22 -20 12 -12 96 36 111 65 7 13 26 28 42 34 69 26 -2 41
-75 16z"/>
<path d="M2072 1887 c-24 -13 -40 -26 -37 -30 3 -4 2 -5 -2 -2 -3 3 -17 -5
-30 -17 -23 -22 -34 -13 -11 10 7 7 8 12 4 12 -5 0 -15 -8 -22 -17 -7 -10 -18
-18 -26 -18 -7 0 -13 -7 -14 -15 0 -23 -15 -50 -24 -45 -13 8 -57 -107 -64
-165 -6 -47 -5 -52 6 -34 7 12 19 19 26 17 6 -3 12 0 12 6 0 8 26 9 83 5 94
-7 130 3 191 56 47 42 134 209 96 185 -5 -3 -8 7 -5 25 3 27 1 29 -15 20 -10
-6 -29 -10 -42 -10 -19 0 -20 2 -8 11 11 8 6 9 -23 5 -24 -3 -35 -1 -31 5 3 6
-9 3 -27 -6 l-34 -16 25 20 c32 26 26 26 -28 -2z m104 -36 c46 3 64 -5 64 -28
0 -13 -3 -12 -17 4 -18 20 -18 19 -19 -31 -3 -95 -62 -165 -159 -187 -48 -11
-60 -10 -90 4 -25 12 -35 13 -35 5 0 -8 -6 -6 -16 4 -15 15 -15 20 1 69 21 61
84 133 109 123 9 -3 16 -8 16 -11 0 -3 -6 -3 -14 0 -7 3 -26 -8 -42 -24 -23
-24 -26 -31 -14 -42 8 -7 10 -7 7 -1 -8 15 18 38 33 29 16 -10 12 -25 -7 -26
-11 0 -13 -3 -5 -6 6 -2 10 -9 7 -13 -3 -5 3 -14 14 -19 18 -10 19 -7 18 37
-2 36 2 47 13 47 11 0 16 -13 18 -43 2 -28 7 -42 15 -39 16 5 16 36 0 70 -8
15 -11 33 -7 39 4 6 3 8 -2 5 -6 -3 -16 -2 -24 4 -12 7 -12 9 3 9 10 0 16 4
13 9 -3 4 6 6 19 3 15 -2 25 0 25 7 0 7 5 9 10 6 6 -3 10 0 10 7 0 11 2 11 9
0 5 -8 24 -12 47 -11z"/>
<path d="M1699 1834 c-7 -8 -13 -26 -14 -40 l-1 -24 23 26 c12 14 19 32 16 40
-7 18 -8 17 -24 -2z"/>
<path d="M1320 1829 c-11 -8 -9 -9 10 -4 22 5 23 5 7 -6 -11 -6 -34 -11 -53
-12 -22 -1 -30 -5 -25 -11 5 -6 14 -35 21 -63 25 -107 115 -182 203 -170 23 3
52 9 63 12 16 5 23 2 27 -14 3 -12 11 -21 19 -20 10 0 10 2 1 6 -8 3 -13 22
-13 46 0 53 -32 117 -80 161 -65 59 -151 95 -180 75z m107 -54 c7 -3 10 -10 7
-18 -3 -8 3 -20 12 -28 13 -11 18 -11 21 -1 9 26 23 -1 23 -44 0 -32 4 -44 15
-44 10 0 13 9 10 30 -2 18 0 28 6 24 6 -3 8 -11 6 -17 -2 -7 2 -18 10 -25 58
-58 -87 -99 -161 -46 -14 11 -35 39 -47 63 -24 52 -38 118 -21 108 5 -4 21 -3
34 2 21 8 49 7 85 -4z"/>
<path d="M1441 1691 c-8 -14 -6 -23 9 -36 20 -18 20 -17 20 18 0 40 -13 48
-29 18z"/>
<path d="M1064 1820 c-5 -5 -34 -14 -64 -19 l-55 -10 52 4 c48 4 128 34 93 35
-9 0 -20 -4 -26 -10z"/>
<path d="M1203 1800 c4 -17 2 -18 -14 -9 -13 7 -32 6 -62 -2 -41 -11 -42 -12
-17 -22 14 -7 29 -16 33 -22 5 -6 7 -3 3 8 -3 9 0 18 7 18 54 6 74 4 90 -9 27
-24 20 4 -8 33 -31 30 -39 32 -32 5z"/>
<path d="M2444 1809 c-13 -5 -14 -8 -4 -9 12 0 11 -3 -3 -11 -9 -5 -21 -8 -26
-5 -5 3 -12 -1 -15 -10 -9 -24 -7 -28 8 -14 8 6 36 20 62 29 41 16 44 19 22
23 -13 2 -33 1 -44 -3z"/>
<path d="M886 1781 c-3 -5 10 -12 30 -15 19 -4 38 -14 41 -22 3 -8 26 -26 52
-41 25 -14 68 -39 94 -56 26 -16 51 -27 54 -23 4 3 1 6 -5 6 -7 0 -20 8 -30
18 -9 9 -36 26 -59 36 -24 10 -40 23 -36 29 4 6 0 8 -10 4 -10 -3 -17 -2 -17
4 0 6 19 7 49 3 31 -4 51 -2 55 5 4 6 2 11 -4 11 -6 0 -8 5 -5 10 4 6 -19 10
-63 10 -50 0 -73 4 -82 15 -14 16 -56 20 -64 6z"/>
<path d="M2575 1770 c3 -5 1 -11 -4 -11 -6 -1 -15 -2 -20 -3 -14 -2 -116 -107
-116 -119 0 -6 -6 -12 -14 -15 -10 -3 -12 0 -7 13 4 10 -12 1 -36 -21 -24 -21
-45 -42 -47 -47 -11 -29 -76 -73 -101 -69 -13 3 -13 2 0 -7 32 -23 57 -11 110
52 64 74 76 87 66 70 -14 -25 17 -12 50 21 18 18 36 32 39 30 3 -2 3 -1 0 2
-8 12 16 45 27 38 7 -4 8 -3 4 4 -5 8 1 12 16 12 17 0 19 3 9 9 -11 7 -8 11
10 17 13 4 27 7 31 6 4 -1 22 5 40 13 l33 14 -48 1 c-30 0 -46 -4 -42 -10z"/>
<path d="M2708 1771 c-55 -8 -74 -21 -32 -22 20 0 10 -5 -31 -15 -32 -8 -62
-19 -66 -25 -3 -6 -10 -10 -15 -9 -13 2 -15 -13 -4 -30 5 -8 13 -11 17 -6 4 5
2 11 -6 14 -17 6 55 41 85 42 12 0 33 9 47 20 16 12 40 20 65 20 23 0 44 5 47
10 7 11 -32 11 -107 1z"/>
<path d="M2417 1730 c-14 -16 -30 -30 -36 -30 -6 0 -11 -4 -11 -10 0 -20 19
-9 50 30 37 46 34 54 -3 10z"/>
<path d="M1186 1722 c5 -4 20 -24 33 -45 13 -21 25 -36 28 -33 8 7 -47 86 -60
86 -8 0 -8 -3 -1 -8z"/>
<path d="M2541 1609 c-18 -6 -31 -12 -28 -15 8 -8 77 7 77 17 0 11 -4 10 -49
-2z"/>
<path d="M2453 1543 c-24 -8 -43 -21 -43 -28 0 -8 -8 -16 -17 -18 -17 -4 -17
-5 0 -6 9 0 25 8 34 19 10 11 25 20 34 20 9 0 30 7 45 15 38 20 6 18 -53 -2z"/>
<path d="M1234 1528 c-4 -7 -4 -10 0 -6 4 3 29 -6 54 -21 47 -27 140 -56 150
-47 5 6 -42 26 -61 26 -7 0 -39 14 -72 30 -70 35 -62 33 -71 18z"/>
<path d="M1040 1510 c-11 -7 -8 -9 15 -9 17 1 41 5 55 9 22 7 20 8 -15 9 -22
0 -47 -4 -55 -9z"/>
<path d="M1747 1467 c-24 -23 -47 -55 -50 -69 -5 -19 -17 -30 -43 -38 -40 -14
-87 -4 -156 31 -31 16 -38 17 -48 4 -10 -12 -9 -15 5 -15 10 0 26 -6 34 -13 9
-8 39 -22 66 -31 57 -20 117 -30 97 -17 -10 6 -7 12 13 25 26 17 31 17 94 1
56 -15 75 -16 124 -6 31 7 57 16 57 20 0 4 13 6 29 3 16 -2 32 1 35 7 5 7 1 8
-9 4 -10 -3 -20 -1 -24 6 -5 8 -23 6 -66 -9 -65 -22 -114 -24 -163 -7 l-33 12
35 42 c32 37 63 93 51 93 -3 0 -24 -19 -48 -43z"/>
<path d="M1231 1464 c13 -14 53 -40 89 -57 88 -44 100 -51 100 -59 0 -5 5 -8
10 -8 17 0 140 -60 140 -68 0 -4 10 -12 23 -17 42 -19 26 -115 -17 -99 -18 7
-22 30 -6 36 6 2 13 15 15 28 4 20 0 26 -14 27 -18 2 -41 -33 -41 -61 0 -18
-48 -68 -54 -57 -3 4 -2 11 1 15 4 4 8 16 10 28 3 21 3 21 -18 -3 l-21 -24
-46 26 c-26 14 -54 39 -62 55 -11 20 -22 29 -39 28 -24 -1 -44 -22 -35 -36 9
-14 24 -9 24 9 0 13 6 11 30 -12 31 -30 33 -48 3 -24 -15 11 -15 10 1 -9 11
-12 15 -22 11 -22 -5 0 -1 -6 9 -13 18 -13 17 -15 -8 -40 -14 -14 -26 -31 -26
-38 0 -6 9 0 21 15 16 20 29 26 57 25 l37 -1 -32 -8 c-53 -12 -90 -50 -110
-112 -10 -32 -22 -58 -28 -58 -5 0 -4 -4 4 -9 11 -7 9 -10 -8 -16 -12 -4 -21
-15 -21 -26 0 -13 -5 -18 -12 -14 -7 4 -5 0 5 -8 21 -17 22 -27 2 -27 -8 0
-15 -8 -15 -17 0 -14 2 -15 9 -5 4 8 11 13 15 13 21 -3 26 2 26 23 0 14 -5 28
-10 31 -16 10 -1 25 26 25 20 0 24 5 24 29 0 16 7 34 15 41 8 7 15 25 15 41 0
35 32 67 76 75 40 7 54 0 54 -30 0 -13 7 -29 15 -36 17 -14 21 0 5 16 -25 25
35 114 77 114 18 0 23 -6 24 -27 2 -24 2 -25 6 -5 7 34 21 26 33 -18 11 -42
30 -63 30 -33 0 22 33 66 51 69 8 1 41 9 74 18 l60 15 -61 -2 c-38 -1 -67 3
-77 11 -9 8 -18 9 -21 3 -4 -5 2 -14 11 -20 16 -9 16 -10 2 -11 -9 0 -22 7
-29 15 -7 8 -9 15 -6 15 4 0 0 7 -8 16 -9 8 -16 29 -16 45 0 26 -6 32 -47 50
-27 11 -75 34 -108 51 -123 65 -170 88 -182 88 -6 0 -15 5 -19 12 -5 7 -2 9 8
6 9 -4 15 0 15 8 0 9 -6 13 -14 9 -8 -3 -24 2 -36 10 -34 24 -43 18 -16 -11z
m168 -311 c38 -29 53 -45 46 -52 -3 -2 -14 8 -26 22 -11 15 -26 27 -34 27 -7
0 -18 7 -25 15 -19 23 0 18 39 -12z m264 -1 c14 -16 14 -19 -3 -42 -11 -14
-20 -22 -20 -17 0 4 1 8 2 10 1 1 -4 12 -11 25 -20 38 3 56 32 24z"/>
<path d="M1600 1466 c0 -12 69 -76 82 -76 3 0 5 7 5 15 0 8 -3 12 -6 10 -4 -2
-15 3 -26 11 -19 15 -19 15 6 10 21 -3 26 -1 24 12 -1 10 3 20 9 24 6 5 3 8
-9 8 -12 0 -26 -5 -33 -12 -9 -9 -12 -9 -12 1 0 7 -5 9 -11 6 -6 -4 -8 -14 -5
-22 4 -8 1 -11 -5 -8 -6 4 -8 13 -5 21 3 8 1 14 -4 14 -6 0 -10 -6 -10 -14z"/>
<path d="M2118 1473 c18 -2 45 -2 60 0 15 2 0 4 -33 4 -33 0 -45 -2 -27 -4z"/>
<path d="M2305 1461 c-6 -6 -52 -32 -103 -59 -50 -27 -90 -51 -87 -54 8 -7
177 79 187 95 4 7 29 12 57 12 27 0 44 3 38 7 -17 11 -81 10 -92 -1z"/>
<path d="M2447 1462 c-18 -4 -18 -4 0 -18 17 -13 17 -14 -2 -8 -13 5 -17 4
-10 -3 11 -12 71 -33 91 -33 8 0 14 5 14 10 0 6 -9 10 -19 10 -11 0 -28 10
-38 23 -11 14 -25 22 -36 19z"/>
<path d="M2020 1450 l-45 -8 57 2 c31 0 54 4 52 8 -3 5 -8 7 -12 6 -4 0 -27
-4 -52 -8z"/>
<path d="M1970 1298 c-202 -75 -226 -78 -292 -44 -34 18 -36 6 -5 -30 20 -23
31 -27 83 -28 45 -1 58 2 56 13 -2 8 3 11 13 8 8 -4 39 7 68 25 28 17 53 30
55 29 1 0 3 0 5 0 10 6 57 3 57 -2 0 -15 -23 -21 -31 -8 -4 7 -11 10 -16 6 -4
-5 -1 -12 6 -16 10 -7 8 -12 -10 -25 -13 -9 -20 -16 -16 -16 10 0 82 50 116
79 31 27 44 15 31 -29 l-9 -35 19 24 c18 21 19 54 3 84 -6 11 -20 8 -133 -35z"/>
<path d="M2120 1316 c0 -18 27 -46 45 -46 27 0 25 19 -4 39 -34 25 -41 26 -41
7z"/>
<path d="M2305 1308 c-46 -10 -71 -11 -102 -3 -30 7 -29 -1 1 -20 20 -13 29
-14 46 -5 16 9 25 8 36 -1 11 -9 21 -9 40 0 47 21 158 4 178 -27 12 -20 -200
-92 -224 -77 -6 4 -10 1 -10 -6 0 -8 14 -9 48 -4 26 4 97 13 157 20 61 7 116
15 124 16 19 5 25 -17 6 -25 -9 -3 -48 -8 -88 -12 -40 -3 -79 -10 -87 -16 -11
-6 -8 -7 9 -2 16 4 21 3 17 -5 -4 -6 -4 -11 1 -10 19 3 34 -2 29 -10 -3 -5 1
-14 9 -21 29 -24 14 -31 -17 -8 -18 13 -37 24 -43 24 -5 0 -27 3 -47 7 -21 4
-55 9 -75 12 l-38 5 30 -13 c17 -8 56 -16 87 -20 61 -6 90 -20 116 -58 15 -21
14 -22 -3 -15 -13 5 -11 -1 8 -18 15 -14 27 -35 28 -48 0 -21 1 -21 8 -3 7 17
9 16 15 -10 4 -16 18 -42 32 -58 25 -30 31 -47 15 -47 -5 0 -12 9 -16 19 -3
11 -13 25 -22 33 -14 11 -14 9 1 -14 11 -17 14 -28 7 -28 -6 0 -11 4 -11 9 0
10 -26 9 -36 -2 -4 -4 2 -7 13 -7 20 0 78 -39 59 -40 -5 0 -3 -6 3 -14 9 -11
6 -12 -14 -8 -14 2 -25 8 -25 13 0 5 -7 5 -17 2 -12 -5 -14 -3 -8 7 6 10 3 12
-13 8 -12 -4 -22 -3 -22 1 0 4 -28 7 -62 8 l-63 0 70 -12 c75 -14 147 -39 180
-63 16 -12 17 -13 2 -8 -10 3 -26 -2 -37 -12 -11 -9 -29 -25 -40 -34 -11 -10
-20 -30 -20 -45 0 -16 -4 -34 -9 -41 -5 -8 -8 5 -7 35 1 26 -2 64 -6 83 -7 33
-6 33 7 -5 l13 -40 1 34 c1 31 3 33 31 29 17 -3 33 -1 36 3 6 10 -64 32 -82
25 -9 -3 -12 -1 -9 4 3 6 1 10 -4 10 -14 0 -14 -51 0 -109 5 -24 8 -46 5 -48
-2 -3 -10 22 -17 54 -7 32 -16 62 -20 67 -10 11 -31 -3 -23 -16 4 -7 9 -6 14
2 4 6 10 -8 13 -32 3 -24 9 -52 13 -63 6 -14 4 -17 -9 -12 -11 4 -7 -8 14 -41
23 -36 28 -54 23 -77 -3 -16 -3 -26 2 -22 12 12 32 -83 23 -114 -3 -14 -2 -51
2 -83 8 -47 7 -62 -8 -87 -9 -16 -21 -29 -26 -29 -5 0 -4 7 3 15 8 9 8 15 2
15 -6 0 -13 -8 -17 -19 -3 -10 -24 -26 -46 -36 -28 -13 -36 -21 -27 -27 8 -5
1 -8 -19 -8 -47 0 -41 22 12 43 25 11 56 32 69 47 13 16 27 26 30 23 3 -4 6
-1 6 5 0 22 -18 21 -41 -5 -30 -32 -78 -53 -121 -53 -49 0 -67 -16 -27 -24 25
-5 30 -9 21 -18 -7 -7 -15 -8 -24 -1 -7 5 -41 10 -75 11 -46 1 -62 -2 -67 -13
-3 -8 -16 -15 -29 -15 -14 0 -30 -7 -37 -15 -10 -13 -9 -15 9 -15 33 0 77 -26
100 -59 16 -22 18 -31 9 -35 -7 -3 -4 -5 6 -3 11 1 21 7 23 13 4 13 -55 104
-69 104 -5 0 -6 -5 -2 -12 4 -7 3 -8 -4 -4 -14 9 -3 38 12 32 6 -2 53 -14 104
-26 75 -18 96 -20 105 -10 10 10 6 12 -15 8 -15 -3 -25 -1 -22 3 7 13 54 11
54 -1 0 -12 55 14 82 38 10 8 15 18 13 22 -3 4 3 14 12 21 15 12 16 12 10 -3
-9 -25 0 -22 15 4 14 26 20 268 6 268 -4 0 -8 9 -8 21 0 11 -5 30 -11 41 -9
16 -8 23 2 29 11 7 11 9 -2 9 -9 0 -19 9 -22 21 -4 16 -2 19 10 15 13 -5 14
-4 3 9 -9 11 -10 18 -1 28 6 8 8 17 5 20 -10 10 30 54 45 49 9 -3 11 0 6 8 -5
9 -4 11 4 6 6 -4 22 -1 35 7 18 12 23 25 23 57 0 27 -3 37 -8 28 -6 -9 -9 -3
-9 17 0 34 -54 176 -82 217 -19 28 -23 43 -9 34 13 -8 61 40 60 61 0 15 -2 14
-11 -4 -10 -21 -12 -22 -25 -5 -13 16 -14 15 -10 -6 3 -12 2 -20 -3 -17 -4 3
-11 -2 -14 -11 -3 -8 -9 -13 -14 -10 -12 7 -9 -57 3 -67 6 -5 4 -7 -5 -4 -9 2
-15 17 -16 35 -1 18 -9 41 -18 51 -13 15 -14 20 -4 24 10 4 10 6 1 6 -18 1
-16 18 1 18 8 0 15 -3 14 -6 -3 -30 4 -34 21 -13 20 23 51 30 51 10 0 -7 11 3
25 22 32 43 32 58 -2 66 -16 4 -34 11 -41 17 -10 8 -16 7 -24 -4 -8 -11 -9
-11 -4 3 4 13 -2 20 -19 24 -14 3 -25 13 -25 21 0 9 -8 13 -22 12 -13 -2 -29
0 -36 5 -20 12 -92 15 -137 4z m210 -1154 c-35 -27 -53 -35 -60 -24 -3 5 9 16
27 24 44 19 58 19 33 0z"/>
<path d="M1344 1259 c-9 -15 6 -29 29 -29 12 0 31 -7 41 -15 22 -16 46 -20 46
-7 0 5 -10 14 -22 19 -22 10 -22 11 4 9 14 0 24 -4 22 -7 -8 -13 22 -16 39 -4
23 17 22 20 -11 21 -15 1 -53 6 -85 11 -32 6 -60 6 -63 2z"/>
<path d="M2037 1231 c-20 -20 -37 -40 -37 -45 0 -5 9 3 21 18 11 14 25 26 31
26 6 0 5 -7 -3 -17 -11 -13 -11 -15 -1 -9 12 7 36 56 30 61 -2 2 -20 -14 -41
-34z"/>
<path d="M2175 1261 c-6 -5 -19 -11 -30 -13 -23 -4 -50 -26 -42 -35 3 -3 13 2
22 11 9 9 21 16 26 16 6 0 3 -7 -5 -16 -28 -28 -17 -36 17 -12 17 13 35 23 40
23 4 0 7 3 7 8 0 4 0 12 0 17 0 13 -23 13 -35 1z"/>
<path d="M2385 1249 c-53 -10 -125 -39 -125 -50 0 -5 5 -9 10 -9 6 0 10 5 10
12 0 6 3 8 6 5 4 -3 16 0 26 8 11 7 26 11 33 9 7 -3 16 0 20 5 3 6 11 9 16 6
12 -8 99 5 99 15 0 9 -44 9 -95 -1z"/>
<path d="M2228 1181 c11 -6 10 -11 -3 -25 -18 -17 -2 -23 23 -8 17 11 4 42
-17 42 -12 0 -13 -2 -3 -9z"/>
<path d="M1531 1121 c-17 -11 -25 -48 -12 -56 10 -5 51 41 51 56 0 12 -21 11
-39 0z"/>
<path d="M2251 1121 c-1 -8 -8 -11 -21 -8 -11 3 -20 1 -20 -5 0 -5 -4 -6 -10
-3 -10 6 -71 -22 -105 -49 -20 -16 -20 -16 0 -9 11 3 23 11 26 16 4 5 19 10
34 10 16 0 22 3 15 7 -8 5 -7 9 4 13 9 4 16 2 16 -3 0 -5 13 -5 31 0 38 11 43
15 36 32 -4 10 -6 10 -6 -1z"/>
<path d="M1808 1113 c-42 -4 -48 -7 -48 -26 0 -16 3 -18 9 -8 5 7 15 11 22 9
8 -3 26 1 40 8 15 7 29 10 33 7 3 -4 6 -1 6 5 0 7 -3 11 -7 10 -5 -1 -29 -3
-55 -5z"/>
<path d="M2365 1089 c17 -6 35 -11 41 -12 7 -2 20 -9 29 -17 15 -13 17 -12 14
5 -3 11 -9 20 -16 20 -6 0 -15 3 -19 8 -4 4 -23 7 -43 6 l-36 -1 30 -9z"/>
<path d="M1556 1041 c-43 -62 -89 -66 -101 -11 -4 17 -11 32 -16 36 -17 10
-58 -5 -70 -27 -6 -13 -7 -19 -1 -15 6 3 12 0 15 -6 3 -9 10 -8 23 6 19 18 18
18 -3 13 -13 -3 -23 -1 -23 4 0 5 3 10 8 10 38 7 49 4 49 -10 0 -26 -17 -41
-49 -41 -16 0 -27 -4 -24 -9 4 -5 1 -11 -5 -13 -7 -2 -5 -9 5 -17 13 -11 16
-11 16 1 0 16 44 41 54 31 3 -4 -2 -16 -11 -27 -14 -17 -13 -16 9 2 15 14 28
19 32 14 9 -15 -4 -42 -20 -42 -8 0 -14 -4 -14 -8 0 -5 -7 -17 -16 -28 -15
-18 -15 -18 -11 9 3 17 0 27 -8 27 -8 0 -12 -12 -11 -31 0 -20 -5 -34 -13 -37
-10 -3 -12 0 -8 12 4 11 3 15 -4 10 -6 -3 -8 -15 -6 -26 3 -11 3 -17 -1 -14
-7 8 -32 -50 -32 -75 0 -10 5 -21 11 -25 7 -4 10 -1 7 7 -13 36 66 125 101
114 18 -5 20 -12 14 -51 -4 -32 -2 -44 7 -44 7 0 10 6 7 14 -9 23 22 28 35 6
9 -15 24 -20 53 -20 22 0 46 -4 53 -9 17 -10 12 -44 -8 -53 -12 -5 -12 -7 2
-7 14 -1 15 -5 7 -30 -7 -19 -7 -36 -1 -47 7 -13 10 -8 15 22 8 47 31 82 63
94 14 6 21 15 19 23 -7 18 65 53 75 36 6 -8 9 -8 12 2 4 11 27 14 96 13 82 -1
99 -5 156 -33 69 -34 136 -107 162 -178 14 -37 14 -37 8 27 -4 36 -11 72 -16
80 -6 10 -7 7 -2 -10 6 -24 6 -24 -13 -7 -11 9 -22 15 -25 11 -3 -3 -12 8 -19
25 -7 16 -16 28 -20 25 -4 -2 -15 4 -25 13 -10 10 -20 18 -23 18 -22 2 -50 18
-46 26 3 5 -1 6 -9 3 -8 -3 -27 1 -43 9 -15 8 -72 18 -125 22 -76 5 -100 11
-114 26 -27 30 -35 22 -17 -16 14 -29 20 -34 42 -29 23 5 24 4 8 -6 -10 -7
-24 -9 -31 -7 -8 3 -31 -12 -51 -33 -21 -22 -42 -37 -47 -34 -4 3 -6 9 -3 14
9 15 -20 28 -70 31 -52 3 -66 16 -57 52 4 14 7 15 20 5 12 -10 16 -10 19 0 3
6 9 12 14 12 6 0 7 -6 3 -12 -4 -7 -4 -10 0 -6 4 3 20 3 34 -1 15 -5 36 -5 47
0 18 7 18 8 -5 9 -23 1 -23 2 -5 10 19 8 19 9 -2 9 -12 1 -23 -4 -25 -11 -3
-7 -12 -9 -23 -4 -16 6 -12 12 29 52 69 68 51 74 -27 9 -37 -30 -67 -53 -67
-49 0 3 -11 -1 -24 -9 -24 -16 -24 -16 -28 22 -2 27 0 37 9 34 6 -3 13 -11 15
-19 2 -11 6 -9 16 6 12 19 11 22 -8 27 -23 6 -22 24 1 31 11 3 11 2 1 -6 -11
-7 -10 -10 3 -16 23 -9 37 -8 31 3 -3 4 3 16 14 26 11 10 17 21 15 25 -3 5 9
13 27 19 31 11 31 11 12 34 -10 12 -19 23 -20 25 -1 1 -13 -15 -28 -37z"/>
<path d="M1690 1057 c0 -10 11 -22 24 -28 19 -9 32 -6 70 13 l46 24 -47 -1
c-36 -1 -48 -5 -53 -20 -6 -17 -8 -17 -23 6 -14 19 -17 20 -17 6z"/>
<path d="M2305 1065 c25 -12 97 -23 87 -13 -5 5 -29 12 -53 14 -24 2 -39 2
-34 -1z"/>
<path d="M1971 1020 c0 -15 3 -30 8 -35 5 -6 12 -25 14 -43 3 -19 17 -44 34
-58 74 -65 92 -84 81 -84 -15 0 -1 -13 17 -16 12 -2 13 2 3 19 -7 12 -11 25
-10 29 1 5 -4 7 -11 5 -6 -1 -11 4 -9 11 1 8 -2 11 -7 8 -12 -8 -33 18 -23 29
4 5 1 5 -6 1 -14 -9 -42 16 -42 38 0 8 -4 18 -10 21 -5 3 -10 23 -11 43 0 29
-2 33 -9 17 -7 -18 -8 -16 -12 10 -5 27 -5 27 -7 5z"/>
<path d="M1597 979 c-52 -52 -42 -50 21 4 32 27 35 27 48 10 7 -10 14 -28 14
-41 0 -13 4 -21 8 -18 11 7 3 66 -9 66 -5 0 -9 7 -9 15 0 26 -20 16 -73 -36z"/>
<path d="M2260 1026 c0 -2 17 -14 37 -26 24 -14 32 -16 24 -6 -11 14 -11 16 4
16 10 0 27 -8 38 -17 19 -17 20 -17 8 4 -10 21 -10 21 11 10 13 -7 36 -21 51
-31 15 -10 30 -16 33 -13 3 3 -4 8 -15 12 -12 3 -21 10 -21 16 0 16 -71 39
-121 39 -27 0 -49 -2 -49 -4z"/>
<path d="M1762 1008 c-14 -14 -16 -42 -3 -34 5 4 6 -4 3 -16 -5 -19 -7 -20
-10 -5 -3 17 -24 21 -23 4 1 -4 1 -16 1 -27 0 -17 7 -20 48 -21 l47 -2 -40 -6
-40 -6 39 -12 c38 -12 77 -5 91 16 3 6 14 11 24 11 9 0 26 7 37 16 18 15 18
15 -3 5 -12 -6 -44 -11 -71 -11 -60 0 -87 23 -80 70 5 32 -1 37 -20 18z"/>
<path d="M2064 1006 c-8 -9 -7 -15 3 -25 19 -18 35 -1 20 20 -9 12 -15 13 -23
5z"/>
<path d="M2049 964 c30 -39 77 -86 96 -96 23 -13 -60 82 -90 102 -19 12 -19
12 -6 -6z"/>
<path d="M1324 919 c7 -52 6 -56 -13 -54 -11 1 -24 4 -27 8 -15 15 -24 6 -14
-14 8 -15 15 -17 24 -10 9 7 16 7 24 -1 8 -8 13 -3 17 18 4 16 10 39 15 51 7
16 4 26 -12 40 l-21 18 7 -56z"/>
<path d="M2293 883 c20 -2 54 -2 75 0 20 2 3 4 -38 4 -41 0 -58 -2 -37 -4z"/>
<path d="M547 863 c-9 -2 -14 -9 -10 -15 4 -7 0 -9 -10 -5 -23 9 -66 -29 -88
-77 -22 -49 -25 -144 -5 -171 12 -16 13 -12 8 34 -5 55 22 171 41 171 5 0 21
8 35 19 57 39 117 34 91 -7 -15 -24 -46 -35 -53 -18 -2 6 -5 3 -5 -6 -1 -14 5
-16 35 -11 25 4 39 2 44 -8 16 -24 19 -5 7 41 -15 59 -31 68 -90 53z"/>
<path d="M664 849 c3 -13 9 -36 12 -51 4 -16 11 -28 16 -28 6 0 8 6 5 14 -9
23 25 25 56 3 15 -10 27 -25 27 -33 0 -8 5 -14 11 -14 5 0 2 14 -8 31 -18 32
-58 66 -102 89 -22 12 -24 11 -17 -11z"/>
<path d="M776 825 c24 -25 49 -45 54 -45 6 0 10 -5 10 -11 0 -5 -5 -7 -12 -3
-8 5 -9 2 -3 -12 4 -10 11 -35 15 -54 6 -28 8 -31 15 -17 4 10 14 16 21 13 10
-4 11 0 2 19 -6 13 -15 22 -19 19 -5 -3 -6 2 -3 10 8 20 31 10 38 -17 4 -16 8
-19 17 -10 15 15 -36 84 -56 77 -8 -3 -20 4 -27 15 -7 12 -18 21 -24 21 -6 0
-23 9 -37 20 -43 34 -39 22 9 -25z"/>
<path d="M2154 839 c-18 -21 -11 -23 34 -11 22 7 22 7 3 19 -16 10 -22 9 -37
-8z"/>
<path d="M2258 843 c23 -2 61 -2 85 0 23 2 4 4 -43 4 -47 0 -66 -2 -42 -4z"/>
<path d="M422 809 c-9 -12 -25 -29 -35 -39 -16 -15 -16 -18 -2 -30 12 -10 15
-10 15 2 0 9 11 32 25 52 27 39 25 49 -3 15z"/>
<path d="M2245 810 c-31 -6 -19 -8 50 -8 50 0 109 -3 133 -7 49 -9 60 9 11 19
-40 8 -141 5 -194 -4z"/>
<path d="M1243 802 c-9 -6 -123 -216 -123 -227 0 -1 19 -10 43 -20 23 -10 51
-27 63 -37 20 -18 21 -17 53 27 18 25 36 43 40 41 4 -3 13 0 21 5 12 8 10 14
-14 35 l-28 25 -24 -32 c-33 -45 -30 -58 6 -24 41 39 46 28 6 -15 -30 -33 -76
-49 -76 -27 0 5 -7 7 -14 4 -11 -4 -13 -1 -9 10 4 11 3 14 -5 9 -24 -15 -24
25 0 57 28 38 59 103 73 155 7 24 6 25 -12 14z"/>
<path d="M1430 801 c0 -7 -5 -9 -12 -5 -6 4 -8 3 -5 -2 17 -29 -72 -65 -103
-41 -13 11 -13 10 -1 -5 7 -10 24 -18 37 -18 21 0 23 -3 17 -32 -8 -44 -9 -45
-36 -21 -12 11 -28 24 -36 28 -22 13 -2 -16 31 -43 15 -13 26 -28 22 -33 -3
-5 -2 -9 3 -9 4 0 20 23 35 51 14 27 20 45 12 38 -9 -7 -14 -8 -14 -1 0 6 5
14 10 17 6 4 8 11 5 16 -4 5 -2 9 3 9 13 0 45 50 38 58 -3 3 -6 0 -6 -7z"/>
<path d="M1814 798 c1 -8 27 -12 79 -12 42 -1 77 -5 77 -9 0 -5 5 -5 11 -2 15
10 4 17 -33 21 -18 2 -53 6 -76 9 -29 4 -41 2 -37 -5 3 -5 2 -10 -4 -10 -5 0
-12 5 -14 10 -3 6 -4 5 -3 -2z"/>
<path d="M518 792 c-22 -4 -24 -32 -3 -32 9 0 18 7 22 15 7 19 3 22 -19 17z"/>
<path d="M1753 775 l-23 -12 25 -11 c14 -6 25 -16 25 -22 0 -17 17 -3 23 19 3
13 1 18 -8 15 -7 -3 -15 1 -17 8 -2 11 -8 12 -25 3z"/>
<path d="M2386 735 c-4 -42 -2 -73 9 -105 8 -25 12 -32 10 -17 -5 25 -4 27 14
17 11 -5 23 -15 26 -20 4 -6 9 -8 13 -6 4 2 8 -7 9 -21 1 -26 33 -69 33 -45 0
7 5 10 11 6 8 -5 8 -1 0 14 -6 12 -18 25 -25 29 -8 4 -14 13 -13 18 1 6 -13
19 -30 30 -22 14 -32 28 -33 45 0 20 -2 22 -10 10 -12 -19 -13 -4 -1 35 4 17
5 39 1 50 -5 13 -9 1 -14 -40z"/>
<path d="M1880 753 c-58 -8 -70 -15 -86 -45 -12 -23 -15 -46 -11 -84 6 -59 6
-58 -69 -70 -44 -6 -49 -5 -72 22 l-24 29 16 -31 c8 -17 12 -35 8 -39 -4 -4 0
-5 8 -3 8 3 23 1 32 -3 10 -5 27 -5 42 0 17 7 26 7 30 -2 2 -7 5 -4 5 6 1 10
5 16 10 13 14 -9 34 22 28 44 -4 15 0 20 13 20 10 0 20 -6 23 -14 4 -10 15
-13 31 -10 29 5 33 -7 16 -51 -7 -17 -7 -24 0 -20 6 3 10 0 10 -7 0 -8 20 -24
45 -36 50 -24 59 -26 51 -14 -3 5 8 22 24 37 17 16 30 38 30 50 0 11 5 26 12
33 9 9 9 12 -1 12 -7 0 -28 16 -47 35 -34 35 -49 38 -17 3 9 -10 12 -18 6 -18
-5 0 -16 12 -23 26 l-14 25 -18 -23 c-18 -23 -18 -22 -2 13 11 25 14 42 7 53
-8 14 -10 12 -10 -13 0 -17 -7 -39 -16 -49 -10 -10 -14 -22 -10 -27 5 -4 3 -5
-3 -2 -6 3 -29 7 -51 8 l-41 3 15 42 c19 55 31 65 91 71 l50 4 6 -35 c8 -40
13 -44 30 -20 9 12 17 13 39 5 15 -6 27 -15 27 -21 0 -6 5 -8 10 -5 6 3 10 -1
10 -10 0 -8 7 -18 15 -21 8 -4 12 -11 8 -17 -3 -5 -1 -7 4 -4 15 9 23 -41 12
-72 -9 -25 -8 -25 6 -7 31 40 12 100 -49 153 -46 41 -150 74 -206 66z m120
-163 c23 -23 24 -29 10 -64 -11 -30 -49 -42 -79 -26 -32 17 -29 71 7 92 35 22
38 22 62 -2z"/>
<path d="M542 704 c24 -25 40 -34 49 -28 10 6 8 10 -10 14 -44 10 -37 30 11
31 l43 1 -40 9 c-22 4 -51 8 -65 8 -24 1 -24 0 12 -35z"/>
<path d="M340 704 c-19 -8 -43 -17 -52 -20 -22 -8 -24 -24 -3 -24 8 0 19 -15
24 -32 8 -30 9 -31 11 -8 1 14 2 28 2 32 -1 3 4 11 11 16 15 12 32 -5 32 -33
0 -11 8 -21 17 -23 11 -2 15 2 13 15 -2 10 -4 26 -4 37 -1 12 -6 16 -16 12 -8
-3 -15 -1 -15 3 0 5 7 11 15 15 15 5 22 27 8 25 -5 -1 -24 -8 -43 -15z"/>
<path d="M706 694 c9 -39 14 -42 21 -16 7 30 56 27 61 -3 3 -17 1 -17 -7 -5
-9 13 -11 13 -11 -2 0 -9 6 -19 13 -22 9 -5 9 -7 0 -12 -8 -3 -11 -15 -7 -30
4 -14 2 -24 -5 -24 -6 0 -14 19 -18 43 -6 41 -7 41 -14 13 -5 -19 -3 -38 6
-56 12 -24 12 -30 -2 -51 l-17 -24 24 20 c32 28 60 93 60 143 0 41 -1 42 -32
42 -18 0 -43 3 -56 6 -21 6 -22 4 -16 -22z"/>
<path d="M1685 708 c-23 -13 -44 -39 -44 -53 0 -5 8 0 18 13 11 12 28 22 40
22 24 0 45 -35 35 -58 -4 -9 -7 -20 -6 -24 1 -3 -13 -2 -30 2 -17 5 -35 7 -39
4 -5 -3 -9 0 -9 7 0 7 -3 9 -6 6 -14 -14 18 -35 52 -35 28 0 37 5 49 28 15 28
11 90 -5 90 -5 0 -14 2 -22 5 -7 2 -22 -1 -33 -7z"/>
<path d="M476 695 c-3 -9 -6 -34 -6 -56 0 -39 0 -39 24 -24 13 8 30 13 39 10
24 -10 31 15 10 33 -62 55 -60 54 -67 37z"/>
<path d="M627 676 c-26 -33 -26 -34 -7 -51 19 -17 20 -17 20 2 0 11 6 26 14
32 11 9 15 6 20 -15 4 -14 9 -24 12 -21 6 6 -19 87 -27 87 -4 0 -18 -15 -32
-34z"/>
<path d="M914 689 c-3 -6 -1 -15 6 -19 6 -4 10 -11 8 -15 -1 -5 7 -9 20 -10
12 -1 22 3 23 9 0 6 4 2 9 -9 7 -16 9 -17 9 -3 1 16 -43 58 -60 58 -4 0 -11
-5 -15 -11z"/>
<path d="M1393 645 c-21 -32 -21 -37 -9 -79 10 -32 11 -46 3 -49 -6 -2 -1 -6
11 -9 12 -4 20 -2 17 3 -3 5 3 16 14 26 11 9 17 21 13 27 -16 25 -29 77 -21
82 11 6 12 34 2 34 -5 0 -18 -16 -30 -35z"/>
<path d="M2347 674 c-4 -4 -3 -12 0 -18 4 -6 9 -20 10 -31 2 -10 9 -22 15 -27
9 -5 8 -9 -4 -13 -15 -6 -14 -11 8 -45 34 -51 15 -78 -29 -42 -12 10 -16 10
-19 0 -4 -10 -11 -11 -36 -2 -24 9 -34 9 -42 0 -5 -7 -7 -15 -4 -19 3 -3 -9
-13 -28 -22 -18 -10 -41 -24 -50 -33 -25 -21 -22 -9 7 34 30 43 34 119 9 150
-15 18 -15 18 -5 -3 18 -36 13 -65 -16 -95 -21 -22 -27 -37 -24 -63 2 -26 -1
-35 -13 -35 -9 0 -16 8 -16 18 0 9 -5 24 -10 32 -8 11 -9 7 -5 -15 3 -16 2
-24 -1 -17 -5 10 -9 9 -20 -6 -16 -23 -51 -22 -97 5 -30 18 -77 35 -77 28 0
-2 23 -18 51 -37 28 -18 46 -34 40 -36 -7 -2 -23 3 -37 12 -24 17 -50 13 -38
-5 3 -5 2 -9 -3 -8 -4 1 -15 0 -23 -3 -20 -8 -130 -26 -156 -26 -17 -1 -20 5
-18 26 4 26 3 26 -4 3 -11 -35 -31 -39 -24 -5 10 52 -72 75 -119 34 l-24 -20
30 15 c17 8 41 14 55 14 23 -1 22 -2 -5 -8 -38 -8 -40 -35 -2 -39 41 -5 32
-18 -12 -17 -46 1 -74 21 -67 47 3 13 -3 23 -20 30 -13 6 -24 20 -24 30 0 15
6 19 28 16 21 -2 27 -8 26 -26 0 -17 3 -21 15 -16 9 4 61 13 116 19 l100 12
-76 2 c-42 0 -101 6 -132 12 -30 6 -66 9 -79 6 -21 -6 -24 -11 -20 -44 7 -60
80 -137 120 -126 12 3 20 8 17 12 -2 4 19 4 48 0 72 -10 169 -2 252 21 114 30
163 40 199 40 18 0 39 7 46 15 21 26 122 75 154 75 42 0 98 -17 121 -36 20
-15 20 -16 0 -9 -46 16 -58 15 -25 -3 63 -33 80 -47 76 -59 -3 -7 1 -10 10 -6
7 3 14 0 14 -6 0 -6 5 -11 12 -11 6 0 0 13 -15 28 -15 16 -24 31 -21 35 4 4
18 -5 31 -19 12 -14 23 -21 23 -16 0 4 -16 24 -36 43 -19 18 -34 28 -32 20 2
-7 -3 -16 -11 -19 -8 -3 -11 0 -7 6 6 11 -27 53 -40 51 -3 0 -9 3 -12 7 -4 4
-2 4 5 0 6 -3 14 -2 18 4 3 5 2 10 -2 10 -5 0 -15 16 -22 35 -7 19 -17 33 -22
30 -5 -4 -9 -2 -9 4 0 5 4 11 10 13 6 2 5 19 -3 45 -14 46 -20 56 -30 47z
m-667 -291 c0 -11 -6 -14 -22 -9 -13 3 -30 6 -37 6 -20 0 -2 17 24 22 26 6 35
1 35 -19z"/>
<path d="M239 634 c-6 -16 -16 -38 -22 -49 -6 -11 -19 -38 -30 -60 -11 -22
-23 -48 -28 -57 -18 -35 -9 -53 34 -76 77 -41 162 -122 127 -122 -6 0 -10 6
-10 13 0 13 -60 66 -97 86 -13 6 -23 8 -23 3 0 -10 55 -62 90 -85 13 -10 19
-17 13 -17 -6 0 -32 16 -57 35 -51 39 -56 41 -56 23 0 -7 31 -30 69 -50 68
-38 121 -91 121 -124 0 -10 3 -15 6 -11 3 3 18 -7 32 -23 15 -16 61 -46 102
-67 68 -34 82 -38 150 -37 82 2 262 19 296 29 14 5 28 0 40 -13 11 -10 33 -22
49 -26 l30 -7 -32 24 c-18 13 -29 28 -25 32 4 5 2 5 -5 1 -6 -3 -14 -2 -18 4
-4 6 -11 8 -16 5 -5 -4 -9 -1 -9 5 0 6 -11 4 -27 -6 l-28 -16 25 22 c14 12 32
27 40 34 8 6 24 21 34 34 18 21 18 22 1 22 -10 0 -16 -3 -12 -6 10 -10 -26
-42 -41 -36 -11 4 -13 2 -7 -8 5 -8 4 -11 -3 -6 -6 3 -25 -2 -44 -13 -18 -11
-55 -22 -83 -25 -38 -5 -45 -4 -30 4 16 8 15 9 -10 4 -51 -10 -99 -16 -130
-15 -23 0 -26 -2 -15 -9 13 -8 13 -10 -2 -10 -9 0 -20 5 -23 10 -4 6 -11 8
-16 5 -5 -4 -9 -1 -9 5 0 6 -5 8 -10 5 -14 -9 -40 13 -40 34 0 10 -13 30 -30
46 -16 16 -30 23 -30 17 0 -7 4 -12 9 -12 10 0 23 -41 16 -49 -3 -2 -16 6 -30
19 -22 21 -23 25 -10 44 8 11 15 27 14 36 0 8 -5 4 -11 -10 l-11 -25 -5 24
c-2 13 2 28 10 32 9 6 5 9 -13 9 -15 0 -29 6 -32 14 -4 10 2 12 26 7 31 -7 33
-5 54 46 21 52 22 130 2 117 -5 -3 -9 5 -10 18 0 22 -1 22 -9 3 -4 -11 -4 -24
0 -29 8 -8 -14 -38 -67 -93 -21 -21 -21 -24 -6 -85 9 -35 20 -71 25 -81 7 -15
6 -18 -9 -15 -10 2 -18 12 -18 23 0 33 -38 126 -50 121 -6 -2 -12 8 -13 22 -2
24 -84 110 -106 112 -12 0 -46 41 -46 55 0 6 7 20 15 31 13 18 14 17 10 -13
-3 -26 0 -31 12 -26 11 4 14 2 9 -5 -4 -7 -3 -12 2 -12 10 0 38 142 35 179 -4
40 -21 48 -34 15z m271 -276 c0 -7 -10 -23 -22 -36 -13 -14 -17 -22 -10 -18
13 8 16 -3 4 -21 -7 -11 -26 -16 -49 -14 -8 1 2 23 24 55 33 50 53 62 53 34z
m258 -325 c-15 -2 -42 -2 -60 0 -18 2 -6 4 27 4 33 0 48 -2 33 -4z"/>
<path d="M840 633 c-2 -105 -149 -216 -253 -190 -23 5 -46 14 -52 18 -24 22
-36 -11 -14 -41 8 -12 9 -10 4 7 -6 22 -6 22 41 8 26 -8 61 -11 78 -8 41 8
112 39 120 52 4 5 13 8 22 4 8 -3 14 -2 13 3 -4 22 2 35 13 28 7 -4 8 -3 4 4
-4 7 -2 12 3 12 6 0 10 3 9 8 -3 10 13 56 22 62 16 10 16 60 0 60 -5 0 -10
-12 -10 -27z"/>
<path d="M940 615 c0 -8 5 -15 10 -15 22 0 8 -30 -21 -45 -17 -9 -29 -19 -26
-22 3 -2 14 0 25 6 12 6 34 11 50 11 17 0 37 9 48 22 17 19 17 21 1 15 -12 -4
-25 2 -39 18 -24 28 -48 33 -48 10z"/>
<path d="M2420 615 c0 -3 10 -25 22 -48 12 -23 21 -49 20 -57 -2 -12 -1 -12 6
-2 6 9 1 31 -14 63 -21 43 -34 60 -34 44z"/>
<path d="M685 580 c-7 -11 11 -40 25 -40 4 0 5 11 2 25 -5 26 -16 32 -27 15z"/>
<path d="M2250 564 c0 -14 -5 -34 -10 -45 -6 -10 -8 -19 -5 -19 7 0 35 64 35
80 0 5 -4 10 -10 10 -5 0 -10 -12 -10 -26z"/>
<path d="M384 569 c-6 -11 41 -60 50 -52 10 10 36 -26 30 -41 -3 -9 -1 -16 5
-16 20 0 11 31 -20 70 -34 42 -55 55 -65 39z"/>
<path d="M1062 563 c-6 -3 -10 -9 -7 -14 4 -5 0 -6 -8 -3 -8 3 -18 0 -22 -6
-12 -20 -8 -82 7 -91 16 -11 29 -11 26 -1 -5 13 54 82 64 76 5 -3 -1 -18 -14
-32 -21 -23 -20 -23 14 4 41 31 49 49 19 39 -11 -3 -22 -1 -26 5 -9 15 -38 28
-53 23z"/>
<path d="M615 540 c-11 -5 -37 -9 -57 -9 -31 -1 -38 -5 -38 -20 0 -27 18 -36
44 -21 17 8 37 9 77 2 55 -10 103 -1 62 12 -11 4 -28 15 -38 26 -20 22 -21 22
-50 10z"/>
<path d="M1443 522 c-3 -9 -8 -21 -11 -25 -2 -5 6 -4 18 3 21 11 145 10 176
-1 7 -2 11 1 10 6 0 6 -7 9 -13 9 -7 -1 -13 3 -13 10 0 7 -28 12 -81 13 -67 2
-81 -1 -86 -15z"/>
<path d="M1270 515 c-12 -15 -12 -19 5 -31 26 -19 49 -18 68 4 19 21 22 42 6
42 -5 0 -7 -5 -4 -10 3 -6 -1 -13 -9 -16 -9 -3 -13 -11 -10 -18 3 -6 -5 2 -18
18 -22 26 -25 27 -38 11z"/>
<path d="M1140 489 c-19 -17 -45 -38 -57 -46 -29 -19 -25 -25 42 -63 52 -30
55 -30 82 -15 15 9 20 14 11 11 -11 -3 -23 3 -33 17 -13 19 -17 20 -25 7 -8
-13 -10 -12 -10 3 0 9 -5 17 -11 17 -5 0 -7 -6 -3 -12 6 -10 5 -10 -8 -1 -8 7
-18 10 -21 6 -4 -3 -7 -1 -7 5 0 7 5 12 11 12 5 0 7 6 3 13 -5 7 0 6 11 -3 10
-8 16 -10 12 -4 -3 6 4 21 17 33 l24 22 32 -19 c34 -21 64 -58 56 -70 -2 -4 3
-16 11 -27 15 -19 15 -19 9 9 -6 23 -4 27 8 22 44 -17 50 -17 26 3 -14 11 -29
21 -33 21 -5 0 -28 20 -53 45 -24 25 -47 45 -51 45 -4 0 -24 -14 -43 -31z"/>
<path d="M1356 484 c-17 -17 -20 -25 -8 -22 4 0 14 -1 22 -5 8 -3 24 -7 35
-10 11 -3 28 -8 38 -12 14 -6 17 -2 17 26 0 19 -4 30 -8 24 -11 -16 -46 -15
-55 1 -10 18 -22 18 -41 -2z"/>
<path d="M1825 489 c4 -6 9 -8 12 -5 8 8 62 -67 57 -76 -6 -10 10 -11 19 -2 8
9 -65 93 -81 94 -7 0 -10 -5 -7 -11z"/>
<path d="M812 469 c4 -9 2 -22 -3 -30 -7 -11 -9 -11 -9 4 0 18 -34 24 -44 8
-4 -5 3 -7 14 -4 22 6 28 -12 8 -20 -10 -4 -9 -8 2 -16 23 -16 29 -13 36 14 4
15 11 22 18 18 6 -4 4 2 -4 13 -22 29 -24 30 -18 13z"/>
<path d="M1186 442 c-7 -12 20 -36 33 -28 5 3 11 0 14 -6 2 -7 8 -9 13 -5 4 4
3 16 -2 25 -12 19 -49 28 -58 14z"/>
<path d="M707 424 c-15 -8 -24 -20 -21 -28 4 -10 -2 -12 -19 -9 -14 3 -28 -1
-32 -8 -6 -8 -4 -11 6 -7 11 4 15 -2 14 -21 0 -23 4 -26 28 -23 16 2 36 -3 45
-10 13 -11 14 -11 7 2 -5 8 -10 21 -12 29 -1 8 -6 17 -11 20 -15 10 -23 42 -9
40 6 -1 23 2 36 8 18 7 20 11 10 15 -8 3 -27 -1 -42 -8z"/>
<path d="M865 420 c-25 -17 -27 -20 -10 -20 11 0 28 9 38 20 21 25 10 25 -28
0z"/>
<path d="M2245 431 c-17 -4 -40 -13 -50 -19 -20 -11 3 -13 132 -12 30 0 75
-18 69 -28 -2 -4 3 -8 12 -8 27 -1 46 -8 54 -19 5 -6 8 -6 8 2 0 6 -5 15 -10
18 -6 4 -7 11 -4 17 5 8 1 9 -10 5 -10 -4 -19 -1 -22 8 -3 8 -12 11 -21 8 -11
-4 -14 -2 -9 5 6 10 -13 16 -94 27 -14 2 -39 0 -55 -4z"/>
<path d="M1335 416 c11 -8 27 -16 35 -16 21 -1 59 -30 39 -30 -8 0 1 -8 19
-16 25 -13 32 -23 32 -45 0 -16 5 -29 10 -29 18 0 10 56 -10 75 -11 10 -18 20
-16 23 3 2 -4 13 -14 24 -12 13 -36 22 -67 25 -45 5 -47 4 -28 -11z"/>
<path d="M321 392 c14 -9 34 -25 44 -35 20 -21 28 -18 19 7 -7 18 -54 46 -76
46 -7 0 -1 -8 13 -18z"/>
<path d="M738 405 c-3 -3 -3 -16 -1 -29 6 -29 39 -41 52 -19 7 14 11 12 26
-11 12 -19 21 -24 28 -17 6 6 9 12 6 14 -2 1 -21 17 -42 35 -36 30 -57 39 -69
27z"/>
<path d="M902 378 c-21 -22 -21 -22 -43 -2 -20 18 -21 18 -18 0 4 -16 29 -33
102 -68 11 -5 22 -6 25 -2 4 4 1 9 -5 11 -18 6 -16 28 3 47 8 9 11 16 5 16 -5
0 -16 -8 -23 -18 -7 -10 -24 -19 -37 -19 l-23 -2 22 24 c29 31 22 42 -8 13z"/>
<path d="M2204 371 c11 -10 25 -11 63 -4 l48 10 -62 4 c-53 3 -60 2 -49 -10z"/>
<path d="M1067 365 c-22 -16 -22 -26 0 -18 11 5 14 3 8 -6 -6 -10 -3 -11 12
-2 11 6 23 7 27 4 3 -3 6 -2 6 3 0 19 -35 32 -53 19z"/>
<path d="M2060 356 c-6 -8 -17 -13 -24 -10 -8 3 -13 -9 -14 -38 -1 -36 0 -39
8 -20 6 13 7 29 4 35 -5 8 -4 9 4 2 23 -21 17 -71 -11 -109 -40 -52 -25 -44
19 10 22 26 33 48 28 52 -18 13 -13 55 8 74 16 14 17 18 6 18 -9 0 -21 -6 -28
-14z"/>
<path d="M2180 350 c0 -11 5 -19 12 -17 8 1 12 -10 10 -33 -1 -19 1 -29 4 -22
3 6 10 12 15 12 6 0 5 -9 -1 -21 -7 -11 -9 -23 -6 -26 8 -8 19 23 20 56 1 15
-9 35 -22 49 -28 27 -32 27 -32 2z"/>
<path d="M598 353 c-17 -3 -28 -11 -28 -20 0 -13 -3 -13 -15 -3 -13 11 -14 10
-9 -4 8 -20 48 -21 68 0 13 12 23 38 14 33 -2 -1 -15 -4 -30 -6z"/>
<path d="M1500 341 c13 -25 13 -34 0 -26 -12 7 -13 -15 -2 -30 12 -18 58 -34
72 -25 8 5 1 12 -24 20 -20 6 -36 16 -36 22 0 6 7 8 15 4 11 -4 8 4 -7 24 -25
34 -34 39 -18 11z"/>
<path d="M1201 334 c8 -9 15 -12 17 -6 2 6 10 8 18 5 8 -3 14 0 14 6 0 6 -14
11 -31 11 -28 0 -30 -2 -18 -16z"/>
<path d="M2479 333 c-12 -15 -12 -16 1 -8 13 8 13 7 0 -10 -11 -14 -12 -19 -2
-22 6 -3 9 -10 5 -16 -4 -7 0 -8 11 -4 10 4 20 7 22 7 10 0 3 49 -10 59 -10 9
-17 7 -27 -6z"/>
<path d="M1126 325 c-21 -16 -86 -17 -86 -2 0 5 -6 4 -14 -2 -7 -6 -21 -9 -30
-5 -10 4 -16 1 -16 -9 0 -28 66 -38 77 -11 3 9 8 12 12 5 4 -6 34 -7 86 -2 69
6 82 5 99 -11 17 -15 107 -48 133 -48 4 0 -19 14 -52 30 -33 16 -67 30 -75 30
-13 0 -13 1 0 10 24 15 6 20 -33 8 -31 -10 -40 -9 -55 5 -22 20 -22 20 -46 2z"/>
<path d="M2435 307 c-26 -28 -91 -74 -80 -57 6 9 3 9 -14 1 -11 -7 -21 -16
-21 -21 0 -4 -12 -13 -27 -19 l-28 -11 31 4 c60 9 143 53 154 82 15 38 8 47
-15 21z"/>
<path d="M762 298 c7 -20 88 -61 135 -68 57 -9 55 5 -2 19 -25 6 -55 23 -67
36 -22 26 -73 35 -66 13z"/>
<path d="M846 302 c-3 -5 0 -14 7 -19 24 -18 116 -45 129 -37 10 6 11 4 0 -7
-10 -11 0 -17 55 -36 69 -23 128 -28 173 -13 18 6 4 9 -50 10 l-75 3 64 8 c87
11 93 23 7 14 -65 -7 -68 -6 -52 10 11 11 25 15 42 11 13 -4 33 -2 44 4 14 7
20 7 20 0 0 -5 7 -10 16 -10 8 0 12 -4 9 -10 -4 -6 6 -10 23 -10 16 0 51 -2
78 -6 l49 -5 -34 15 c-18 9 -41 16 -51 16 -10 0 -28 8 -40 18 -19 16 -31 17
-91 9 -38 -6 -69 -13 -69 -17 0 -12 -49 -22 -71 -15 -11 4 -17 10 -14 15 3 4
-19 11 -47 15 -29 4 -58 12 -65 17 -7 5 -17 7 -22 4 -5 -4 -14 1 -19 10 -5 10
-12 12 -16 6z"/>
<path d="M1632 298 c-7 -7 -11 -28 -11 -47 2 -31 3 -32 6 -8 3 17 11 27 21 28
14 0 13 2 -3 8 -19 8 -19 8 0 19 11 6 15 12 10 12 -6 0 -16 -5 -23 -12z"/>
<path d="M2001 298 c-1 -20 -10 -22 -153 -23 -59 0 -101 -4 -108 -11 -9 -9 16
-12 103 -10 66 0 113 5 109 10 -3 5 4 7 16 4 24 -7 47 14 39 34 -4 8 -6 7 -6
-4z"/>
<path d="M2080 303 c0 -1 9 -7 20 -13 15 -8 26 -7 44 2 24 12 23 13 -20 13
-24 0 -44 -1 -44 -2z"/>
<path d="M2290 295 c-31 -18 -29 -18 40 0 49 12 51 13 20 14 -19 0 -46 -6 -60
-14z"/>
<path d="M1854 288 c13 -9 70 -8 111 1 20 5 3 7 -46 7 -42 -1 -72 -4 -65 -8z"/>
<path d="M700 280 c-11 -8 -7 -9 15 -5 l30 6 -33 -15 c-18 -9 -31 -20 -28 -25
4 -5 1 -13 -5 -17 -7 -4 -9 -3 -6 3 4 6 0 14 -9 17 -10 4 -13 2 -8 -6 5 -7 2
-9 -8 -6 -9 4 -15 0 -15 -8 0 -18 40 -18 97 1 l45 15 -38 -3 c-23 -2 -36 1
-34 7 3 10 7 12 42 15 20 1 7 31 -14 31 -9 0 -23 -5 -31 -10z"/>
<path d="M2164 280 c-22 -9 -39 -39 -28 -49 4 -3 9 0 11 7 3 6 8 10 12 7 5 -2
13 7 19 20 7 14 11 25 9 24 -1 0 -11 -4 -23 -9z"/>
<path d="M530 253 c0 -12 78 -39 87 -30 3 4 -2 7 -13 7 -16 0 -17 2 -4 10 12
8 12 10 -5 10 -11 0 -30 3 -42 6 -13 4 -23 2 -23 -3z"/>
<path d="M952 216 c3 -21 56 -40 86 -33 10 2 -1 7 -23 11 -22 5 -46 16 -53 25
-13 15 -13 14 -10 -3z"/>
<path d="M507 199 c-4 -13 -4 -25 -2 -28 3 -2 5 1 5 8 0 18 78 -46 85 -70 5
-15 10 -18 17 -11 8 8 6 16 -6 27 -23 23 -21 24 22 9 50 -18 56 -17 94 6 l33
21 -37 -7 c-30 -5 -39 -3 -44 10 -3 9 -11 16 -17 16 -5 0 -2 -9 8 -20 10 -11
16 -22 13 -25 -6 -6 -151 63 -159 77 -3 5 -9 -1 -12 -13z"/>
<path d="M871 180 c-13 -11 -41 -23 -62 -26 -22 -4 -39 -10 -39 -15 0 -5 8 -6
18 -2 15 5 14 4 -2 -9 -10 -8 -15 -17 -10 -20 12 -8 85 22 79 32 -3 4 7 11 20
14 14 4 23 11 20 16 -3 6 -1 10 4 10 6 0 11 5 11 10 0 15 -12 12 -39 -10z"/>
<path d="M1556 182 c-5 -15 -15 -18 -51 -17 -24 1 -42 -2 -39 -6 3 -5 23 -9
44 -9 30 0 42 5 50 21 7 11 9 23 7 26 -3 2 -8 -4 -11 -15z"/>
<path d="M2027 180 c-8 -11 -17 -17 -22 -12 -5 4 -5 1 -1 -5 5 -9 0 -13 -15
-13 -19 0 -20 2 -8 18 10 12 8 12 -10 -3 l-23 -20 26 -3 c29 -4 69 20 72 43 3
20 -2 19 -19 -5z"/>
<path d="M2140 190 c0 -5 -19 -23 -42 -40 -22 -16 -36 -30 -29 -30 16 0 99 79
84 80 -7 0 -13 -4 -13 -10z"/>
<path d="M1172 165 c2 -3 16 -6 31 -7 14 -1 24 -5 21 -9 -10 -16 33 -14 50 3
19 18 18 18 -44 18 -35 0 -61 -2 -58 -5z"/>
<path d="M1713 140 c-13 -5 -23 -11 -23 -13 0 -6 123 5 144 13 15 6 5 9 -39 9
-33 0 -70 -4 -82 -9z"/>
<path d="M1875 143 c11 -3 29 -12 39 -22 11 -9 16 -10 12 -3 -6 10 -1 12 21 8
17 -4 13 0 -12 8 -22 8 -49 14 -60 14 -20 0 -20 0 0 -5z"/>
<path d="M999 102 c-13 -14 -19 -23 -12 -19 6 4 14 3 18 -3 10 -16 26 -11 23
8 -4 23 40 30 48 8 6 -17 34 -22 34 -7 0 9 -16 17 -61 31 -20 6 -30 2 -50 -18z"/>
<path d="M1216 111 c-6 -9 65 -103 73 -96 2 3 -4 13 -13 24 -11 12 -14 21 -7
26 6 3 11 12 11 18 0 7 -7 3 -15 -7 -8 -11 -15 -15 -15 -9 0 7 -7 19 -16 27
-14 15 -12 16 21 11 21 -2 33 0 30 5 -8 12 -62 13 -69 1z"/>
<path d="M1974 108 c-5 -8 0 -9 14 -6 12 4 20 2 17 -2 -9 -15 13 -21 57 -13
42 6 42 7 14 14 -16 5 -33 6 -38 3 -4 -3 -8 0 -8 5 0 15 -47 14 -56 -1z"/>
<path d="M1160 63 c14 -10 43 -30 65 -43 l39 -24 -19 33 c-14 23 -28 35 -45
36 -14 1 -34 6 -45 10 -15 6 -14 3 5 -12z"/>
<path d="M2085 69 c17 -5 35 -7 40 -5 6 2 24 -10 40 -25 17 -16 25 -29 19 -29
-6 0 -17 6 -23 14 -7 8 -21 14 -31 13 -17 -1 -18 -11 -2 -12 4 -1 17 -6 30
-14 16 -9 27 -9 36 -2 7 6 17 7 22 3 6 -4 -7 10 -28 31 -33 33 -43 37 -85 36
-45 -1 -46 -1 -18 -10z"/>
</g>
</svg>
